# xmcd CD database file
# Generated: Wed Jan 8 03:57:04 2003 by KSCD
# 
# Track frame offsets:
#       150
#       14709
#       41587
#       55689
#       70840
#       84026
#       98101
#       110003
#       124580
#       141480
#       156782
#       170973
#       190142
#       217993
#       232461
#       245759
#       266577
#       285800
#       309947
#       329341
#
# Disc length: 4753 seconds
#
# Revision: 2
# Processed by: cddbd v1.4PL0 Copyright (c) Steve Scherf et al.
# Submitted via: Kscd 1.3.3
#
DISCID=23128f14
DTITLE=Various Artist - Gospel music - 100 and plus [CD4 of 5)
DYEAR=1900
DGENRE=
TTITLE0=Mahalia Jackson - Hands of God
TTITLE1=Mahalia Jackson - In the upper room
TTITLE2=Mahalia Jackson - Up in Jerusalem
TTITLE3=Mahalia Jackson - Said He would
TTITLE4=Mahalia Jackson - God spoke to Me
TTITLE5=Mahalia Jackson - It's real
TTITLE6=Mahalia Jackson - Didn't it rain
TTITLE7=Mahalia Jackson - It pays to serve the Lord
TTITLE8=Mahalia Jackson - His eye is on the sparrow
TTITLE9=Mahalia Jackson - I wonder if I will ever rest
TTITLE10=Mahalia Jackson - The Lord's Prayer
TTITLE11=Mahalia Jackson - Rusty bell
TTITLE12=Mahalia Jackson - If I could help somebody
TTITLE13=Mahalia Jackson - Holding my saviour's hand
TTITLE14=Mahalia Jackson - This is my faith
TTITLE15=Mahalia Jackson - Elijah Rock
TTITLE16=Mahalia Jackson - We have come a mighty long way
TTITLE17=Mahalia Jackson - Down by the riverside
TTITLE18=Mahalia Jackson - It's my heart
TTITLE19=Mahalia Jackson - Come on childre, let us sing
EXTD=
EXTT0=
EXTT1=
EXTT2=
EXTT3=
EXTT4=
EXTT5=
EXTT6=
EXTT7=
EXTT8=
EXTT9=
EXTT10=
EXTT11=
EXTT12=
EXTT13=
EXTT14=
EXTT15=
EXTT16=
EXTT17=
EXTT18=
EXTT19=
PLAYORDER=
